 <svg  version="1.0" xmlns="http://www.w3.org/2000/svg"  width="300.000000pt" height="300.000000pt" viewBox="0 0 300.000000 300.000000"  preserveAspectRatio="xMidYMid meet">  <g transform="translate(0.000000,300.000000) scale(0.050000,-0.050000)" fill="#ffffff" stroke="none"> <path d="M513 3664 c20 -31 204 -319 407 -639 204 -321 375 -583 380 -583 6 0 65 89 133 198 l123 198 -299 441 -299 441 -241 0 -241 0 37 -56z"/> <path d="M1504 3541 c-68 -98 -124 -186 -124 -194 0 -33 247 -387 261 -373 7 9 118 180 245 381 l232 365 -245 0 -245 0 -124 -179z"/> <path d="M2320 3705 c0 -12 308 -904 425 -1235 l29 -80 181 -6 c157 -5 182 -1 194 30 22 53 451 1292 451 1301 0 4 -69 4 -153 1 l-152 -6 -164 -485 c-90 -266 -168 -489 -173 -494 -5 -5 -84 216 -175 490 l-166 499 -149 0 c-81 0 -148 -7 -148 -15z"/> <path d="M3760 3050 l0 -670 160 0 160 0 0 670 0 670 -160 0 -160 0 0 -670z"/> <path d="M4326 3615 c37 -58 133 -206 213 -330 81 -126 140 -238 134 -254 -6 -16 -101 -164 -212 -329 -111 -166 -201 -306 -201 -312 0 -5 74 -10 165 -10 l165 1 130 209 c72 115 135 209 140 209 6 1 73 -93 150 -209 l140 -210 165 0 c91 0 165 5 165 11 0 6 -99 155 -220 332 -121 176 -220 325 -220 330 0 6 88 147 196 314 108 166 204 314 212 328 11 19 -23 25 -147 25 l-161 0 -133 -200 c-73 -110 -140 -200 -148 -200 -9 0 -73 90 -142 200 l-127 200 -166 0 -165 0 67 -105z"/> </g> </svg> 