<?xml version="1.0" standalone="no"?>
<!DOCTYPE svg PUBLIC "-//W3C//DTD SVG 20010904//EN"
 "http://www.w3.org/TR/2001/REC-SVG-20010904/DTD/svg10.dtd">
<svg version="1.0" xmlns="http://www.w3.org/2000/svg"
 width="300.000000pt" height="300.000000pt" viewBox="0 0 300.000000 300.000000"
 preserveAspectRatio="xMidYMid meet">
<metadata>
Created by potrace 1.10, written by Peter Selinger 2001-2011
</metadata>
<g transform="translate(0.000000,300.000000) scale(0.100000,-0.100000)"
fill="#000000" stroke="none">
<path d="M257 1832 c10 -16 101 -159 203 -320 102 -160 187 -291 190 -291 3 0
33 44 67 99 l61 99 -149 220 -150 221 -120 0 -121 0 19 -28z"/>
<path d="M752 1771 c-34 -50 -62 -93 -62 -97 0 -17 124 -194 130 -187 4 4 59
90 123 191 l116 182 -122 0 -123 0 -62 -89z"/>
<path d="M1160 1853 c0 -7 154 -453 213 -618 l14 -40 90 -3 c79 -2 91 0 98 15
10 27 225 646 225 650 0 2 -34 3 -76 1 l-77 -3 -82 -242 c-45 -134 -83 -245
-86 -247 -3 -3 -42 107 -88 245 l-83 249 -74 0 c-41 0 -74 -3 -74 -7z"/>
<path d="M1880 1525 l0 -335 80 0 80 0 0 335 0 335 -80 0 -80 0 0 -335z"/>
<path d="M2163 1808 c18 -29 66 -104 106 -166 41 -62 71 -119 68 -127 -3 -7
-51 -82 -106 -164 -56 -83 -101 -153 -101 -156 0 -3 37 -5 83 -5 l82 0 65 105
c36 57 67 104 70 105 3 0 37 -47 75 -105 l70 -105 83 0 c45 0 82 3 82 6 0 3
-49 77 -110 165 -60 88 -110 163 -110 166 0 2 44 73 98 156 54 84 102 158 106
165 5 9 -12 12 -73 12 l-81 0 -66 -100 c-37 -55 -71 -100 -75 -100 -4 0 -36
45 -71 100 l-63 100 -83 0 -83 0 34 -52z"/>
</g>
</svg>
